<svg width="38" height="37" viewBox="0 0 38 37" fill="none" xmlns="http://www.w3.org/2000/svg">
<path d="M21.9778 27.3064C29.7616 17.0949 39.6846 6.41258 35.5135 2.42457C31.2871 -1.82459 16.0273 4.01158 6.8857 12.2753C-2.63764 20.1589 3.46026 28.9328 5.21531 30.6869C7.21049 32.6315 14.6483 37.6971 21.9778 27.3064Z" stroke="#537552" stroke-width="2" stroke-miterlimit="10" stroke-linecap="round"/>
<path d="M26.8693 8.54681C16.9902 16.2585 8.29878 25.6415 1.5 36" stroke="#537552" stroke-width="2" stroke-miterlimit="10" stroke-linecap="round"/>
<path d="M18.0273 10.1483C18.4751 11.7232 18.9285 13.3086 19.3925 14.9109C21.0588 15.4003 22.7243 15.8848 24.3971 16.3717" stroke="#537552" stroke-width="2" stroke-miterlimit="10" stroke-linecap="round"/>
<path d="M11.6704 14.17C12.6692 15.925 13.6827 17.6992 14.7149 19.4959C16.5049 20.5068 18.2812 21.5008 20.0492 22.4811" stroke="#537552" stroke-width="2" stroke-miterlimit="10" stroke-linecap="round"/>
<path d="M7.37939 20.2352C8.15517 21.782 8.95291 23.353 9.77753 24.9504C11.3063 25.7186 12.8147 26.4635 14.3068 27.1899" stroke="#537552" stroke-width="2" stroke-miterlimit="10" stroke-linecap="round"/>
</svg>
